<?xml version="1.0" encoding="utf-8"?>
<!-- Generator: Adobe Illustrator 22.0.1, SVG Export Plug-In . SVG Version: 6.00 Build 0)  -->
<svg version="1.1" id="Layer_1" xmlns="http://www.w3.org/2000/svg" xmlns:xlink="http://www.w3.org/1999/xlink" x="0px" y="0px"
	 viewBox="0 0 17.9 18" style="enable-background:new 0 0 17.9 18;" xml:space="preserve">
<style type="text/css">
	.st0{fill:#808080;}
</style>
<g>
	<path class="st0" d="M3.5,1.6c0,0.5,0,0.9,0,1.3c0,0.1,0,0.2,0,0.3C3.6,4,4.3,4.5,5,4.4c0.7,0,1.3-0.6,1.4-1.3c0-0.1,0-0.2,0-0.3
		c0-0.4,0-0.8,0-1.3c1.8,0,3.5,0,5.3,0c0,0,0,0.1,0,0.1c0,0.4,0,0.8,0,1.2c0,0.8,0.6,1.4,1.3,1.4c0.7,0.1,1.4-0.4,1.5-1.2
		c0-0.1,0-0.2,0-0.3c0-0.4,0-0.8,0-1.2c0,0,0-0.1,0-0.1c0,0,0,0,0,0c0.6,0,1.2,0,1.7,0c0.9,0,1.5,0.8,1.6,1.6c0,0,0,0.1,0,0.1
		c0,4.3,0,8.6,0,12.9c0,0.8-0.5,1.5-1.2,1.7c-0.2,0-0.3,0.1-0.5,0.1c-4.8,0-9.6,0-14.4,0c-0.9,0-1.7-0.7-1.7-1.6c0,0,0,0,0-0.1
		c0-4.3,0-8.6,0-13c0-0.8,0.5-1.5,1.2-1.7c0.1,0,0.3-0.1,0.4-0.1C2.3,1.6,2.9,1.6,3.5,1.6C3.4,1.6,3.4,1.6,3.5,1.6z M1.5,6.4
		c0,0,0,0.1,0,0.1c0,3.1,0,6.1,0,9.2c0,0.5,0.4,0.9,0.9,0.9c4.4,0,8.9,0,13.3,0c0.5,0,0.9-0.4,0.9-0.9c0-3.1,0-6.1,0-9.2
		c0,0,0-0.1,0-0.1C11.5,6.4,6.5,6.4,1.5,6.4z"/>
	<path class="st0" d="M5.6,1.9c0,0.3,0,0.7,0,1c0,0.3-0.2,0.6-0.6,0.7c-0.3,0-0.6-0.1-0.7-0.5c0-0.1,0-0.1,0-0.2c0-0.7,0-1.4,0-2.1
		c0-0.3,0.2-0.6,0.6-0.7c0.3,0,0.6,0.1,0.7,0.5c0,0.1,0,0.1,0,0.2C5.6,1.3,5.6,1.6,5.6,1.9z"/>
	<path class="st0" d="M13.8,1.9c0,0.3,0,0.7,0,1c0,0.4-0.3,0.7-0.7,0.7c-0.4,0-0.7-0.3-0.7-0.7c0-0.7,0-1.3,0-2
		c0-0.4,0.3-0.7,0.7-0.7c0.4,0,0.7,0.3,0.7,0.7c0,0,0,0,0,0C13.8,1.3,13.8,1.6,13.8,1.9z"/>
	<path class="st0" d="M14.8,13.4c0,0.5,0,1,0,1.5c-0.7,0-1.4,0-2,0c0-0.5,0-1,0-1.5C13.5,13.4,14.2,13.4,14.8,13.4z"/>
	<path class="st0" d="M5.2,14.9c-0.7,0-1.4,0-2,0c0-0.5,0-1,0-1.5c0.7,0,1.4,0,2,0C5.2,13.9,5.2,14.4,5.2,14.9z"/>
	<path class="st0" d="M6.4,13.4c0.7,0,1.4,0,2,0c0,0.5,0,1,0,1.5c-0.7,0-1.4,0-2,0C6.4,14.4,6.4,13.9,6.4,13.4z"/>
	<path class="st0" d="M11.6,13.4c0,0.5,0,1,0,1.5c-0.7,0-1.4,0-2,0c0-0.5,0-1,0-1.5C10.3,13.4,10.9,13.4,11.6,13.4z"/>
	<path class="st0" d="M9.6,12.3c0-0.5,0-1,0-1.5c0.7,0,1.4,0,2,0c0,0.5,0,1,0,1.5C11,12.3,10.3,12.3,9.6,12.3z"/>
	<path class="st0" d="M8.4,10.8c0,0.5,0,1,0,1.5c-0.7,0-1.4,0-2,0c0-0.5,0-1,0-1.5C7.1,10.8,7.7,10.8,8.4,10.8z"/>
	<path class="st0" d="M12.8,10.8c0.7,0,1.4,0,2,0c0,0.5,0,1,0,1.5c-0.7,0-1.4,0-2,0C12.8,11.8,12.8,11.3,12.8,10.8z"/>
	<path class="st0" d="M5.2,12.3c-0.7,0-1.4,0-2,0c0-0.5,0-1,0-1.5c0.7,0,1.4,0,2,0C5.2,11.3,5.2,11.8,5.2,12.3z"/>
	<path class="st0" d="M3.2,8.2c0.7,0,1.4,0,2,0c0,0.5,0,1,0,1.5c-0.7,0-1.4,0-2,0C3.2,9.2,3.2,8.7,3.2,8.2z"/>
	<path class="st0" d="M11.6,8.2c0,0.5,0,1,0,1.5c-0.7,0-1.4,0-2,0c0-0.5,0-1,0-1.5C10.3,8.2,11,8.2,11.6,8.2z"/>
	<path class="st0" d="M14.8,8.2c0,0.5,0,1,0,1.5c-0.7,0-1.4,0-2,0c0-0.5,0-1,0-1.5C13.5,8.2,14.2,8.2,14.8,8.2z"/>
	<path class="st0" d="M6.4,8.2c0.7,0,1.4,0,2,0c0,0.5,0,1,0,1.5c-0.7,0-1.4,0-2,0C6.4,9.2,6.4,8.7,6.4,8.2z"/>
</g>
</svg>
